<svg width="10" height="10" viewBox="0 0 10 10" fill="none" xmlns="http://www.w3.org/2000/svg">
<path d="M0.953727 0.953727C0.634484 1.27297 0.634484 1.79061 0.953727 2.10981L3.84398 5.00001L0.953736 7.89021C0.634493 8.20949 0.634493 8.72712 0.953736 9.04632C1.27298 9.36552 1.79061 9.36552 2.10981 9.04632L5.00001 6.15603L7.89021 9.04632C8.20941 9.36552 8.72704 9.36552 9.04624 9.04632C9.36552 8.72704 9.36552 8.20949 9.04624 7.89021L6.15612 5.00001L9.04624 2.10981C9.36552 1.79061 9.36552 1.27297 9.04624 0.953727C8.72704 0.634492 8.20941 0.634492 7.89021 0.953727L5.00001 3.84389L2.10981 0.953727C1.79061 0.634484 1.27297 0.634484 0.953727 0.953727Z" fill="black"/>
</svg>
